<svg width="512" height="512" viewBox="0 0 512 512" xmlns="http://www.w3.org/2000/svg">
  <rect x="0" y="0" width="512" height="512" rx="80" fill="#8C1515"/>

  <ellipse cx="256" cy="200" rx="175" ry="100" fill="none" stroke="white" stroke-width="18"/>
  <ellipse cx="256" cy="200" rx="175" ry="100" fill="none" stroke="#E8D5A3" stroke-width="4" opacity="0.6"/>

  <circle cx="256" cy="200" r="72" fill="white"/>
  <circle cx="256" cy="200" r="48" fill="#6B1010"/>

  <line x1="256" y1="152" x2="256" y2="98" stroke="#E8D5A3" stroke-width="3.5" opacity="0.8" stroke-linecap="round"/>
  <path d="M256 152 Q292 132 316 110" fill="none" stroke="#E8D5A3" stroke-width="3" opacity="0.7" stroke-linecap="round"/>
  <path d="M256 152 Q220 132 196 110" fill="none" stroke="#E8D5A3" stroke-width="3" opacity="0.7" stroke-linecap="round"/>
  <path d="M256 152 Q298 158 324 148" fill="none" stroke="#E8D5A3" stroke-width="2.5" opacity="0.6" stroke-linecap="round"/>
  <path d="M256 152 Q214 158 188 148" fill="none" stroke="#E8D5A3" stroke-width="2.5" opacity="0.6" stroke-linecap="round"/>
  <path d="M256 152 Q294 175 316 188" fill="none" stroke="#E8D5A3" stroke-width="2" opacity="0.5" stroke-linecap="round"/>
  <path d="M256 152 Q218 175 196 188" fill="none" stroke="#E8D5A3" stroke-width="2" opacity="0.5" stroke-linecap="round"/>

  <circle cx="256" cy="200" r="20" fill="#E8D5A3"/>
  <circle cx="256" cy="200" r="12" fill="#6B1010"/>
  <circle cx="262" cy="194" r="5" fill="white" opacity="0.9"/>

  <text x="256" y="360"
        text-anchor="middle"
        font-family="Arial, sans-serif"
        font-size="56" font-weight="800"
        fill="white">OphthoLog</text>

  <line x1="80" y1="378" x2="432" y2="378" stroke="#E8D5A3" stroke-width="1.5" opacity="0.5"/>

  <text x="256" y="410"
        text-anchor="middle"
        font-family="Arial, sans-serif"
        font-size="20" font-weight="400"
        fill="#E8D5A3" letter-spacing="4">CASE TRACKER</text>
</svg>
